<?xml version="1.0" encoding="us-ascii" standalone="no"?><svg xmlns="http://www.w3.org/2000/svg" xmlns:xlink="http://www.w3.org/1999/xlink" contentStyleType="text/css" height="356px" preserveAspectRatio="none" style="width:287px;height:356px;background:#FFFFFF;" version="1.1" viewBox="0 0 287 356" width="287px" zoomAndPan="magnify"><defs/><g><!--cluster Roddy--><g id="cluster_Roddy"><rect fill="none" height="343" rx="2.5" ry="2.5" style="stroke:#181818;stroke-width:1.0;" width="252" x="7" y="7"/><rect fill="none" height="10" style="stroke:#181818;stroke-width:1.0;" width="15" x="239" y="12"/><rect fill="none" height="2" style="stroke:#181818;stroke-width:1.0;" width="4" x="237" y="14"/><rect fill="none" height="2" style="stroke:#181818;stroke-width:1.0;" width="4" x="237" y="18"/><text fill="#000000" font-family="sans-serif" font-size="14" font-weight="bold" lengthAdjust="spacing" textLength="50" x="108" y="32.9951">Roddy</text></g><!--entity DefaultPlugin--><g id="elem_DefaultPlugin"><rect fill="#F1F1F1" height="46.2969" rx="2.5" ry="2.5" style="stroke:#181818;stroke-width:0.5;" width="135" x="23.5" y="42"/><rect fill="#F1F1F1" height="10" style="stroke:#181818;stroke-width:0.5;" width="15" x="138.5" y="47"/><rect fill="#F1F1F1" height="2" style="stroke:#181818;stroke-width:0.5;" width="4" x="136.5" y="49"/><rect fill="#F1F1F1" height="2" style="stroke:#181818;stroke-width:0.5;" width="4" x="136.5" y="53"/><text fill="#000000" font-family="sans-serif" font-size="14" lengthAdjust="spacing" textLength="95" x="38.5" y="74.9951">DefaultPlugin</text></g><!--entity PluginBase--><g id="elem_PluginBase"><rect fill="#F1F1F1" height="46.2969" rx="2.5" ry="2.5" style="stroke:#181818;stroke-width:0.5;" width="118" x="23" y="165"/><rect fill="#F1F1F1" height="10" style="stroke:#181818;stroke-width:0.5;" width="15" x="121" y="170"/><rect fill="#F1F1F1" height="2" style="stroke:#181818;stroke-width:0.5;" width="4" x="119" y="172"/><rect fill="#F1F1F1" height="2" style="stroke:#181818;stroke-width:0.5;" width="4" x="119" y="176"/><text fill="#000000" font-family="sans-serif" font-size="14" lengthAdjust="spacing" textLength="78" x="38" y="197.9951">PluginBase</text></g><!--entity BioinformaticWorkflowXY--><g id="elem_BioinformaticWorkflowXY"><rect fill="#F1F1F1" height="46.2969" rx="2.5" ry="2.5" style="stroke:#181818;stroke-width:0.5;" width="221" x="22.5" y="288"/><rect fill="#F1F1F1" height="10" style="stroke:#181818;stroke-width:0.5;" width="15" x="223.5" y="293"/><rect fill="#F1F1F1" height="2" style="stroke:#181818;stroke-width:0.5;" width="4" x="221.5" y="295"/><rect fill="#F1F1F1" height="2" style="stroke:#181818;stroke-width:0.5;" width="4" x="221.5" y="299"/><text fill="#000000" font-family="sans-serif" font-size="14" lengthAdjust="spacing" textLength="181" x="37.5" y="320.9951">BioinformaticWorkflowXY</text></g><!--reverse link PluginBase to BioinformaticWorkflowXY--><g id="link_PluginBase_BioinformaticWorkflowXY"><path d="M93.6814,216.7185 C102.8914,238.5585 114.52,266.16 123.71,287.95 " fill="none" id="PluginBase-backto-BioinformaticWorkflowXY" style="stroke:#181818;stroke-width:1.0;"/><polygon fill="#181818" points="91.35,211.19,91.1614,221.0371,93.2928,215.7971,98.5328,217.9285,91.35,211.19" style="stroke:#181818;stroke-width:1.0;"/><text fill="#000000" font-family="sans-serif" font-size="13" lengthAdjust="spacing" textLength="168" x="111" y="254.0669">imports `wrapInScript.sh`</text></g><!--reverse link DefaultPlugin to PluginBase--><g id="link_DefaultPlugin_PluginBase"><path d="M88.9062,94.1736 C87.2862,116.0136 85.26,143.16 83.64,164.95 " fill="none" id="DefaultPlugin-backto-PluginBase" style="stroke:#181818;stroke-width:1.0;"/><polygon fill="#181818" points="89.35,88.19,84.6952,96.8695,88.9801,93.1763,92.6733,97.4612,89.35,88.19" style="stroke:#181818;stroke-width:1.0;"/><text fill="#000000" font-family="sans-serif" font-size="13" lengthAdjust="spacing" textLength="177" x="88" y="131.0669">imports `BasePlugin` class</text></g><!--SRC=[IyxFBSZFIyqhKGZAJqcfLAZcub80WcIui4jgMc9fJab0JcbwPXww94JKAR4u5Lt6AJC_CoyjloWtiIGpEJo_A3ij9xyy8XAY38UaWcvfWQuTag4ALWgPG0EBIeeL4igB4WiyyuAJYp8BIlIACn8W9Y6fXMX6SIwoVf0QY6Y2Gd9EOd4n5rSj5m00]--></g></svg>