<?xml version="1.0" encoding="us-ascii" standalone="no"?><svg xmlns="http://www.w3.org/2000/svg" xmlns:xlink="http://www.w3.org/1999/xlink" contentStyleType="text/css" height="393px" preserveAspectRatio="none" style="width:738px;height:393px;background:#FFFFFF;" version="1.1" viewBox="0 0 738 393" width="738px" zoomAndPan="magnify"><defs/><g><rect fill="#FFFFFF" height="51.1328" style="stroke:#181818;stroke-width:1.0;" width="10" x="29.5" y="46.2969"/><rect fill="#FFFFFF" height="181.5313" style="stroke:#FFFFFF;stroke-width:1.0;" width="10" x="112" y="67.4297"/><line style="stroke:#181818;stroke-width:1.0;" x1="112" x2="112" y1="67.4297" y2="248.9609"/><line style="stroke:#181818;stroke-width:1.0;" x1="122" x2="122" y1="67.4297" y2="248.9609"/><line style="stroke:#181818;stroke-width:1.0;" x1="112" x2="122" y1="67.4297" y2="67.4297"/><rect fill="#FFFFFF" height="59.2656" style="stroke:#FFFFFF;stroke-width:1.0;" width="10" x="112" y="289.7656"/><line style="stroke:#181818;stroke-width:1.0;" x1="112" x2="112" y1="289.7656" y2="349.0313"/><line style="stroke:#181818;stroke-width:1.0;" x1="122" x2="122" y1="289.7656" y2="349.0313"/><rect fill="#FFFFFF" height="122.3984" style="stroke:#FFFFFF;stroke-width:1.0;" width="10" x="223.5" y="126.5625"/><line style="stroke:#181818;stroke-width:1.0;" x1="223.5" x2="223.5" y1="126.5625" y2="248.9609"/><line style="stroke:#181818;stroke-width:1.0;" x1="233.5" x2="233.5" y1="126.5625" y2="248.9609"/><line style="stroke:#181818;stroke-width:1.0;" x1="223.5" x2="233.5" y1="126.5625" y2="126.5625"/><rect fill="#FFFFFF" height="59.2656" style="stroke:#FFFFFF;stroke-width:1.0;" width="10" x="223.5" y="289.7656"/><line style="stroke:#181818;stroke-width:1.0;" x1="223.5" x2="223.5" y1="289.7656" y2="349.0313"/><line style="stroke:#181818;stroke-width:1.0;" x1="233.5" x2="233.5" y1="289.7656" y2="349.0313"/><rect fill="#FFFFFF" height="85.2656" style="stroke:#FFFFFF;stroke-width:1.0;" width="10" x="228.5" y="163.6953"/><line style="stroke:#181818;stroke-width:1.0;" x1="228.5" x2="228.5" y1="163.6953" y2="248.9609"/><line style="stroke:#181818;stroke-width:1.0;" x1="238.5" x2="238.5" y1="163.6953" y2="248.9609"/><line style="stroke:#181818;stroke-width:1.0;" x1="228.5" x2="238.5" y1="163.6953" y2="163.6953"/><rect fill="#FFFFFF" height="59.2656" style="stroke:#FFFFFF;stroke-width:1.0;" width="10" x="228.5" y="289.7656"/><line style="stroke:#181818;stroke-width:1.0;" x1="228.5" x2="228.5" y1="289.7656" y2="349.0313"/><line style="stroke:#181818;stroke-width:1.0;" x1="238.5" x2="238.5" y1="289.7656" y2="349.0313"/><rect fill="#FFFFFF" height="8" style="stroke:#FFFFFF;stroke-width:1.0;" width="10" x="667" y="240.9609"/><line style="stroke:#181818;stroke-width:1.0;" x1="667" x2="667" y1="240.9609" y2="248.9609"/><line style="stroke:#181818;stroke-width:1.0;" x1="677" x2="677" y1="240.9609" y2="248.9609"/><line style="stroke:#181818;stroke-width:1.0;" x1="667" x2="677" y1="240.9609" y2="240.9609"/><rect fill="#FFFFFF" height="21.1328" style="stroke:#FFFFFF;stroke-width:1.0;" width="10" x="667" y="289.7656"/><line style="stroke:#181818;stroke-width:1.0;" x1="667" x2="667" y1="289.7656" y2="310.8984"/><line style="stroke:#181818;stroke-width:1.0;" x1="677" x2="677" y1="289.7656" y2="310.8984"/><line style="stroke:#181818;stroke-width:1.0;" x1="667" x2="677" y1="310.8984" y2="310.8984"/><line style="stroke:#181818;stroke-width:0.5;stroke-dasharray:5.0,5.0;" x1="34" x2="34" y1="36.2969" y2="248.9609"/><line style="stroke:#A80036;stroke-width:1.0;stroke-dasharray:1.0,4.0;" x1="34" x2="34" y1="248.9609" y2="289.7656"/><line style="stroke:#181818;stroke-width:0.5;stroke-dasharray:5.0,5.0;" x1="34" x2="34" y1="289.7656" y2="358.0313"/><line style="stroke:#181818;stroke-width:0.5;stroke-dasharray:5.0,5.0;" x1="117" x2="117" y1="36.2969" y2="248.9609"/><line style="stroke:#A80036;stroke-width:1.0;stroke-dasharray:1.0,4.0;" x1="117" x2="117" y1="248.9609" y2="289.7656"/><line style="stroke:#181818;stroke-width:0.5;stroke-dasharray:5.0,5.0;" x1="117" x2="117" y1="289.7656" y2="358.0313"/><line style="stroke:#181818;stroke-width:0.5;stroke-dasharray:5.0,5.0;" x1="228" x2="228" y1="36.2969" y2="248.9609"/><line style="stroke:#A80036;stroke-width:1.0;stroke-dasharray:1.0,4.0;" x1="228" x2="228" y1="248.9609" y2="289.7656"/><line style="stroke:#181818;stroke-width:0.5;stroke-dasharray:5.0,5.0;" x1="228" x2="228" y1="289.7656" y2="358.0313"/><line style="stroke:#181818;stroke-width:0.5;stroke-dasharray:5.0,5.0;" x1="387" x2="387" y1="36.2969" y2="248.9609"/><line style="stroke:#A80036;stroke-width:1.0;stroke-dasharray:1.0,4.0;" x1="387" x2="387" y1="248.9609" y2="289.7656"/><line style="stroke:#181818;stroke-width:0.5;stroke-dasharray:5.0,5.0;" x1="387" x2="387" y1="289.7656" y2="358.0313"/><line style="stroke:#181818;stroke-width:0.5;stroke-dasharray:5.0,5.0;" x1="545" x2="545" y1="36.2969" y2="248.9609"/><line style="stroke:#A80036;stroke-width:1.0;stroke-dasharray:1.0,4.0;" x1="545" x2="545" y1="248.9609" y2="289.7656"/><line style="stroke:#181818;stroke-width:0.5;stroke-dasharray:5.0,5.0;" x1="545" x2="545" y1="289.7656" y2="358.0313"/><line style="stroke:#181818;stroke-width:0.5;stroke-dasharray:5.0,5.0;" x1="672" x2="672" y1="36.2969" y2="248.9609"/><line style="stroke:#A80036;stroke-width:1.0;stroke-dasharray:1.0,4.0;" x1="672" x2="672" y1="248.9609" y2="289.7656"/><line style="stroke:#181818;stroke-width:0.5;stroke-dasharray:5.0,5.0;" x1="672" x2="672" y1="289.7656" y2="358.0313"/><rect fill="#E2E2F0" height="30.2969" rx="2.5" ry="2.5" style="stroke:#181818;stroke-width:0.5;" width="59" x="5" y="5"/><text fill="#000000" font-family="sans-serif" font-size="14" lengthAdjust="spacing" textLength="45" x="12" y="24.9951">Roddy</text><rect fill="#E2E2F0" height="30.2969" rx="2.5" ry="2.5" style="stroke:#181818;stroke-width:0.5;" width="59" x="5" y="357.0313"/><text fill="#000000" font-family="sans-serif" font-size="14" lengthAdjust="spacing" textLength="45" x="12" y="377.0264">Roddy</text><rect fill="#E2E2F0" height="30.2969" rx="2.5" ry="2.5" style="stroke:#181818;stroke-width:0.5;" width="86" x="74" y="5"/><text fill="#000000" font-family="sans-serif" font-size="14" lengthAdjust="spacing" textLength="72" x="81" y="24.9951">ClusterJob</text><rect fill="#E2E2F0" height="30.2969" rx="2.5" ry="2.5" style="stroke:#181818;stroke-width:0.5;" width="86" x="74" y="357.0313"/><text fill="#000000" font-family="sans-serif" font-size="14" lengthAdjust="spacing" textLength="72" x="81" y="377.0264">ClusterJob</text><rect fill="#E2E2F0" height="30.2969" rx="2.5" ry="2.5" style="stroke:#181818;stroke-width:0.5;" width="117" x="170" y="5"/><text fill="#000000" font-family="sans-serif" font-size="14" lengthAdjust="spacing" textLength="103" x="177" y="24.9951">WrapperScript</text><rect fill="#E2E2F0" height="30.2969" rx="2.5" ry="2.5" style="stroke:#181818;stroke-width:0.5;" width="117" x="170" y="357.0313"/><text fill="#000000" font-family="sans-serif" font-size="14" lengthAdjust="spacing" textLength="103" x="177" y="377.0264">WrapperScript</text><rect fill="#E2E2F0" height="30.2969" rx="2.5" ry="2.5" style="stroke:#181818;stroke-width:0.5;" width="181" x="297" y="5"/><text fill="#000000" font-family="sans-serif" font-size="14" lengthAdjust="spacing" textLength="167" x="304" y="24.9951">BaseEnvironmentScript</text><rect fill="#E2E2F0" height="30.2969" rx="2.5" ry="2.5" style="stroke:#181818;stroke-width:0.5;" width="181" x="297" y="357.0313"/><text fill="#000000" font-family="sans-serif" font-size="14" lengthAdjust="spacing" textLength="167" x="304" y="377.0264">BaseEnvironmentScript</text><rect fill="#E2E2F0" height="30.2969" rx="2.5" ry="2.5" style="stroke:#181818;stroke-width:0.5;" width="114" x="488" y="5"/><text fill="#000000" font-family="sans-serif" font-size="14" lengthAdjust="spacing" textLength="100" x="495" y="24.9951">ParameterFile</text><rect fill="#E2E2F0" height="30.2969" rx="2.5" ry="2.5" style="stroke:#181818;stroke-width:0.5;" width="114" x="488" y="357.0313"/><text fill="#000000" font-family="sans-serif" font-size="14" lengthAdjust="spacing" textLength="100" x="495" y="377.0264">ParameterFile</text><rect fill="#E2E2F0" height="30.2969" rx="2.5" ry="2.5" style="stroke:#181818;stroke-width:0.5;" width="120" x="612" y="5"/><text fill="#000000" font-family="sans-serif" font-size="14" lengthAdjust="spacing" textLength="106" x="619" y="24.9951">WrappedScript</text><rect fill="#E2E2F0" height="30.2969" rx="2.5" ry="2.5" style="stroke:#181818;stroke-width:0.5;" width="120" x="612" y="357.0313"/><text fill="#000000" font-family="sans-serif" font-size="14" lengthAdjust="spacing" textLength="106" x="619" y="377.0264">WrappedScript</text><rect fill="#FFFFFF" height="51.1328" style="stroke:#181818;stroke-width:1.0;" width="10" x="29.5" y="46.2969"/><rect fill="#FFFFFF" height="181.5313" style="stroke:#FFFFFF;stroke-width:1.0;" width="10" x="112" y="67.4297"/><line style="stroke:#181818;stroke-width:1.0;" x1="112" x2="112" y1="67.4297" y2="248.9609"/><line style="stroke:#181818;stroke-width:1.0;" x1="122" x2="122" y1="67.4297" y2="248.9609"/><line style="stroke:#181818;stroke-width:1.0;" x1="112" x2="122" y1="67.4297" y2="67.4297"/><rect fill="#FFFFFF" height="59.2656" style="stroke:#FFFFFF;stroke-width:1.0;" width="10" x="112" y="289.7656"/><line style="stroke:#181818;stroke-width:1.0;" x1="112" x2="112" y1="289.7656" y2="349.0313"/><line style="stroke:#181818;stroke-width:1.0;" x1="122" x2="122" y1="289.7656" y2="349.0313"/><rect fill="#FFFFFF" height="122.3984" style="stroke:#FFFFFF;stroke-width:1.0;" width="10" x="223.5" y="126.5625"/><line style="stroke:#181818;stroke-width:1.0;" x1="223.5" x2="223.5" y1="126.5625" y2="248.9609"/><line style="stroke:#181818;stroke-width:1.0;" x1="233.5" x2="233.5" y1="126.5625" y2="248.9609"/><line style="stroke:#181818;stroke-width:1.0;" x1="223.5" x2="233.5" y1="126.5625" y2="126.5625"/><rect fill="#FFFFFF" height="59.2656" style="stroke:#FFFFFF;stroke-width:1.0;" width="10" x="223.5" y="289.7656"/><line style="stroke:#181818;stroke-width:1.0;" x1="223.5" x2="223.5" y1="289.7656" y2="349.0313"/><line style="stroke:#181818;stroke-width:1.0;" x1="233.5" x2="233.5" y1="289.7656" y2="349.0313"/><rect fill="#FFFFFF" height="85.2656" style="stroke:#FFFFFF;stroke-width:1.0;" width="10" x="228.5" y="163.6953"/><line style="stroke:#181818;stroke-width:1.0;" x1="228.5" x2="228.5" y1="163.6953" y2="248.9609"/><line style="stroke:#181818;stroke-width:1.0;" x1="238.5" x2="238.5" y1="163.6953" y2="248.9609"/><line style="stroke:#181818;stroke-width:1.0;" x1="228.5" x2="238.5" y1="163.6953" y2="163.6953"/><rect fill="#FFFFFF" height="59.2656" style="stroke:#FFFFFF;stroke-width:1.0;" width="10" x="228.5" y="289.7656"/><line style="stroke:#181818;stroke-width:1.0;" x1="228.5" x2="228.5" y1="289.7656" y2="349.0313"/><line style="stroke:#181818;stroke-width:1.0;" x1="238.5" x2="238.5" y1="289.7656" y2="349.0313"/><rect fill="#FFFFFF" height="8" style="stroke:#FFFFFF;stroke-width:1.0;" width="10" x="667" y="240.9609"/><line style="stroke:#181818;stroke-width:1.0;" x1="667" x2="667" y1="240.9609" y2="248.9609"/><line style="stroke:#181818;stroke-width:1.0;" x1="677" x2="677" y1="240.9609" y2="248.9609"/><line style="stroke:#181818;stroke-width:1.0;" x1="667" x2="677" y1="240.9609" y2="240.9609"/><rect fill="#FFFFFF" height="21.1328" style="stroke:#FFFFFF;stroke-width:1.0;" width="10" x="667" y="289.7656"/><line style="stroke:#181818;stroke-width:1.0;" x1="667" x2="667" y1="289.7656" y2="310.8984"/><line style="stroke:#181818;stroke-width:1.0;" x1="677" x2="677" y1="289.7656" y2="310.8984"/><line style="stroke:#181818;stroke-width:1.0;" x1="667" x2="677" y1="310.8984" y2="310.8984"/><polygon fill="#181818" points="100,63.4297,110,67.4297,100,71.4297,104,67.4297" style="stroke:#181818;stroke-width:1.0;"/><line style="stroke:#181818;stroke-width:1.0;" x1="39.5" x2="106" y1="67.4297" y2="67.4297"/><text fill="#000000" font-family="sans-serif" font-size="13" lengthAdjust="spacing" textLength="45" x="46.5" y="62.3638">submit</text><polygon fill="#181818" points="211.5,122.5625,221.5,126.5625,211.5,130.5625,215.5,126.5625" style="stroke:#181818;stroke-width:1.0;"/><line style="stroke:#181818;stroke-width:1.0;" x1="122" x2="217.5" y1="126.5625" y2="126.5625"/><text fill="#000000" font-family="sans-serif" font-size="13" lengthAdjust="spacing" textLength="52" x="129" y="121.4966">execute</text><line style="stroke:#181818;stroke-width:1.0;" x1="233.5" x2="280.5" y1="150.6953" y2="150.6953"/><line style="stroke:#181818;stroke-width:1.0;" x1="280.5" x2="280.5" y1="150.6953" y2="163.6953"/><line style="stroke:#181818;stroke-width:1.0;" x1="239.5" x2="280.5" y1="163.6953" y2="163.6953"/><polygon fill="#181818" points="249.5,159.6953,239.5,163.6953,249.5,167.6953,245.5,163.6953" style="stroke:#181818;stroke-width:1.0;"/><text fill="#000000" font-family="sans-serif" font-size="13" lengthAdjust="spacing" textLength="112" x="245.5" y="145.6294">if `sg` necessary</text><polygon fill="#181818" points="375.5,193.8281,385.5,197.8281,375.5,201.8281,379.5,197.8281" style="stroke:#181818;stroke-width:1.0;"/><line style="stroke:#181818;stroke-width:1.0;" x1="238.5" x2="381.5" y1="197.8281" y2="197.8281"/><text fill="#000000" font-family="sans-serif" font-size="13" lengthAdjust="spacing" textLength="43" x="245.5" y="192.7622">source</text><polygon fill="#181818" points="533,222.9609,543,226.9609,533,230.9609,537,226.9609" style="stroke:#181818;stroke-width:1.0;"/><line style="stroke:#181818;stroke-width:1.0;" x1="238.5" x2="539" y1="226.9609" y2="226.9609"/><text fill="#000000" font-family="sans-serif" font-size="13" lengthAdjust="spacing" textLength="43" x="245.5" y="221.895">source</text><polygon fill="#181818" points="655,236.9609,665,240.9609,655,244.9609,659,240.9609" style="stroke:#181818;stroke-width:1.0;"/><line style="stroke:#181818;stroke-width:1.0;" x1="238.5" x2="661" y1="240.9609" y2="240.9609"/><text fill="#000000" font-family="sans-serif" font-size="11" lengthAdjust="spacing" textLength="162" x="272.25" y="273.1714">usually long processing time</text><polygon fill="#181818" points="249.5,306.8984,239.5,310.8984,249.5,314.8984,245.5,310.8984" style="stroke:#181818;stroke-width:1.0;"/><line style="stroke:#181818;stroke-width:1.0;" x1="243.5" x2="671" y1="310.8984" y2="310.8984"/><text fill="#000000" font-family="sans-serif" font-size="13" lengthAdjust="spacing" textLength="74" x="255.5" y="305.8325">return code</text><polygon fill="#181818" points="133,336.0313,123,340.0313,133,344.0313,129,340.0313" style="stroke:#181818;stroke-width:1.0;"/><line style="stroke:#181818;stroke-width:1.0;" x1="127" x2="227.5" y1="340.0313" y2="340.0313"/><text fill="#000000" font-family="sans-serif" font-size="13" lengthAdjust="spacing" textLength="74" x="139" y="334.9653">return code</text><!--SRC=[ZP4z3i8m38NtdC8Ne0TWO031m8HWOCKafegK9fNZ87fxma-XBGKnENAUFp_RgCMUKGYsmPX6gNk0oGmMBaKXNeSZJ26cOsL5OIj-Vof3E41qAZDdprZNn3lDjfQCeWlf9FHczGHAzVKZ07k2GomFu4bJZCZD_wWvHbhwi-NWA_BoGiQGMDD8mGOPAyh3hAoZNy97mZmx3morQLKK1QIOqBa6NF0br1nkGzZy55iHP44BDzytm2I9FUXWifNE_WVTFapsJjg5N040]--></g></svg>