<?xml version="1.0" encoding="us-ascii" standalone="no"?><svg xmlns="http://www.w3.org/2000/svg" xmlns:xlink="http://www.w3.org/1999/xlink" contentStyleType="text/css" height="422px" preserveAspectRatio="none" style="width:916px;height:422px;background:#FFFFFF;" version="1.1" viewBox="0 0 916 422" width="916px" zoomAndPan="magnify"><defs/><g><rect fill="#FFFFFF" height="51.1328" style="stroke:#181818;stroke-width:1.0;" width="10" x="29.5" y="46.2969"/><rect fill="#FFFFFF" height="210.6641" style="stroke:#FFFFFF;stroke-width:1.0;" width="10" x="112" y="67.4297"/><line style="stroke:#181818;stroke-width:1.0;" x1="112" x2="112" y1="67.4297" y2="278.0938"/><line style="stroke:#181818;stroke-width:1.0;" x1="122" x2="122" y1="67.4297" y2="278.0938"/><line style="stroke:#181818;stroke-width:1.0;" x1="112" x2="122" y1="67.4297" y2="67.4297"/><rect fill="#FFFFFF" height="59.2656" style="stroke:#FFFFFF;stroke-width:1.0;" width="10" x="112" y="318.8984"/><line style="stroke:#181818;stroke-width:1.0;" x1="112" x2="112" y1="318.8984" y2="378.1641"/><line style="stroke:#181818;stroke-width:1.0;" x1="122" x2="122" y1="318.8984" y2="378.1641"/><rect fill="#FFFFFF" height="151.5313" style="stroke:#FFFFFF;stroke-width:1.0;" width="10" x="223.5" y="126.5625"/><line style="stroke:#181818;stroke-width:1.0;" x1="223.5" x2="223.5" y1="126.5625" y2="278.0938"/><line style="stroke:#181818;stroke-width:1.0;" x1="233.5" x2="233.5" y1="126.5625" y2="278.0938"/><line style="stroke:#181818;stroke-width:1.0;" x1="223.5" x2="233.5" y1="126.5625" y2="126.5625"/><rect fill="#FFFFFF" height="59.2656" style="stroke:#FFFFFF;stroke-width:1.0;" width="10" x="223.5" y="318.8984"/><line style="stroke:#181818;stroke-width:1.0;" x1="223.5" x2="223.5" y1="318.8984" y2="378.1641"/><line style="stroke:#181818;stroke-width:1.0;" x1="233.5" x2="233.5" y1="318.8984" y2="378.1641"/><rect fill="#FFFFFF" height="114.3984" style="stroke:#FFFFFF;stroke-width:1.0;" width="10" x="228.5" y="163.6953"/><line style="stroke:#181818;stroke-width:1.0;" x1="228.5" x2="228.5" y1="163.6953" y2="278.0938"/><line style="stroke:#181818;stroke-width:1.0;" x1="238.5" x2="238.5" y1="163.6953" y2="278.0938"/><line style="stroke:#181818;stroke-width:1.0;" x1="228.5" x2="238.5" y1="163.6953" y2="163.6953"/><rect fill="#FFFFFF" height="59.2656" style="stroke:#FFFFFF;stroke-width:1.0;" width="10" x="228.5" y="318.8984"/><line style="stroke:#181818;stroke-width:1.0;" x1="228.5" x2="228.5" y1="318.8984" y2="378.1641"/><line style="stroke:#181818;stroke-width:1.0;" x1="238.5" x2="238.5" y1="318.8984" y2="378.1641"/><rect fill="#FFFFFF" height="8" style="stroke:#FFFFFF;stroke-width:1.0;" width="10" x="845" y="270.0938"/><line style="stroke:#181818;stroke-width:1.0;" x1="845" x2="845" y1="270.0938" y2="278.0938"/><line style="stroke:#181818;stroke-width:1.0;" x1="855" x2="855" y1="270.0938" y2="278.0938"/><line style="stroke:#181818;stroke-width:1.0;" x1="845" x2="855" y1="270.0938" y2="270.0938"/><rect fill="#FFFFFF" height="21.1328" style="stroke:#FFFFFF;stroke-width:1.0;" width="10" x="845" y="318.8984"/><line style="stroke:#181818;stroke-width:1.0;" x1="845" x2="845" y1="318.8984" y2="340.0313"/><line style="stroke:#181818;stroke-width:1.0;" x1="855" x2="855" y1="318.8984" y2="340.0313"/><line style="stroke:#181818;stroke-width:1.0;" x1="845" x2="855" y1="340.0313" y2="340.0313"/><line style="stroke:#181818;stroke-width:0.5;stroke-dasharray:5.0,5.0;" x1="34" x2="34" y1="36.2969" y2="278.0938"/><line style="stroke:#A80036;stroke-width:1.0;stroke-dasharray:1.0,4.0;" x1="34" x2="34" y1="278.0938" y2="318.8984"/><line style="stroke:#181818;stroke-width:0.5;stroke-dasharray:5.0,5.0;" x1="34" x2="34" y1="318.8984" y2="387.1641"/><line style="stroke:#181818;stroke-width:0.5;stroke-dasharray:5.0,5.0;" x1="117" x2="117" y1="36.2969" y2="278.0938"/><line style="stroke:#A80036;stroke-width:1.0;stroke-dasharray:1.0,4.0;" x1="117" x2="117" y1="278.0938" y2="318.8984"/><line style="stroke:#181818;stroke-width:0.5;stroke-dasharray:5.0,5.0;" x1="117" x2="117" y1="318.8984" y2="387.1641"/><line style="stroke:#181818;stroke-width:0.5;stroke-dasharray:5.0,5.0;" x1="228" x2="228" y1="36.2969" y2="278.0938"/><line style="stroke:#A80036;stroke-width:1.0;stroke-dasharray:1.0,4.0;" x1="228" x2="228" y1="278.0938" y2="318.8984"/><line style="stroke:#181818;stroke-width:0.5;stroke-dasharray:5.0,5.0;" x1="228" x2="228" y1="318.8984" y2="387.1641"/><line style="stroke:#181818;stroke-width:0.5;stroke-dasharray:5.0,5.0;" x1="387" x2="387" y1="36.2969" y2="278.0938"/><line style="stroke:#A80036;stroke-width:1.0;stroke-dasharray:1.0,4.0;" x1="387" x2="387" y1="278.0938" y2="318.8984"/><line style="stroke:#181818;stroke-width:0.5;stroke-dasharray:5.0,5.0;" x1="387" x2="387" y1="318.8984" y2="387.1641"/><line style="stroke:#181818;stroke-width:0.5;stroke-dasharray:5.0,5.0;" x1="545" x2="545" y1="36.2969" y2="278.0938"/><line style="stroke:#A80036;stroke-width:1.0;stroke-dasharray:1.0,4.0;" x1="545" x2="545" y1="278.0938" y2="318.8984"/><line style="stroke:#181818;stroke-width:0.5;stroke-dasharray:5.0,5.0;" x1="545" x2="545" y1="318.8984" y2="387.1641"/><line style="stroke:#181818;stroke-width:0.5;stroke-dasharray:5.0,5.0;" x1="696" x2="696" y1="36.2969" y2="278.0938"/><line style="stroke:#A80036;stroke-width:1.0;stroke-dasharray:1.0,4.0;" x1="696" x2="696" y1="278.0938" y2="318.8984"/><line style="stroke:#181818;stroke-width:0.5;stroke-dasharray:5.0,5.0;" x1="696" x2="696" y1="318.8984" y2="387.1641"/><line style="stroke:#181818;stroke-width:0.5;stroke-dasharray:5.0,5.0;" x1="850" x2="850" y1="36.2969" y2="278.0938"/><line style="stroke:#A80036;stroke-width:1.0;stroke-dasharray:1.0,4.0;" x1="850" x2="850" y1="278.0938" y2="318.8984"/><line style="stroke:#181818;stroke-width:0.5;stroke-dasharray:5.0,5.0;" x1="850" x2="850" y1="318.8984" y2="387.1641"/><rect fill="#E2E2F0" height="30.2969" rx="2.5" ry="2.5" style="stroke:#181818;stroke-width:0.5;" width="59" x="5" y="5"/><text fill="#000000" font-family="sans-serif" font-size="14" lengthAdjust="spacing" textLength="45" x="12" y="24.9951">Roddy</text><rect fill="#E2E2F0" height="30.2969" rx="2.5" ry="2.5" style="stroke:#181818;stroke-width:0.5;" width="59" x="5" y="386.1641"/><text fill="#000000" font-family="sans-serif" font-size="14" lengthAdjust="spacing" textLength="45" x="12" y="406.1592">Roddy</text><rect fill="#E2E2F0" height="30.2969" rx="2.5" ry="2.5" style="stroke:#181818;stroke-width:0.5;" width="86" x="74" y="5"/><text fill="#000000" font-family="sans-serif" font-size="14" lengthAdjust="spacing" textLength="72" x="81" y="24.9951">ClusterJob</text><rect fill="#E2E2F0" height="30.2969" rx="2.5" ry="2.5" style="stroke:#181818;stroke-width:0.5;" width="86" x="74" y="386.1641"/><text fill="#000000" font-family="sans-serif" font-size="14" lengthAdjust="spacing" textLength="72" x="81" y="406.1592">ClusterJob</text><rect fill="#E2E2F0" height="30.2969" rx="2.5" ry="2.5" style="stroke:#181818;stroke-width:0.5;" width="117" x="170" y="5"/><text fill="#000000" font-family="sans-serif" font-size="14" lengthAdjust="spacing" textLength="103" x="177" y="24.9951">WrapperScript</text><rect fill="#E2E2F0" height="30.2969" rx="2.5" ry="2.5" style="stroke:#181818;stroke-width:0.5;" width="117" x="170" y="386.1641"/><text fill="#000000" font-family="sans-serif" font-size="14" lengthAdjust="spacing" textLength="103" x="177" y="406.1592">WrapperScript</text><rect fill="#E2E2F0" height="30.2969" rx="2.5" ry="2.5" style="stroke:#181818;stroke-width:0.5;" width="181" x="297" y="5"/><text fill="#000000" font-family="sans-serif" font-size="14" lengthAdjust="spacing" textLength="167" x="304" y="24.9951">BaseEnvironmentScript</text><rect fill="#E2E2F0" height="30.2969" rx="2.5" ry="2.5" style="stroke:#181818;stroke-width:0.5;" width="181" x="297" y="386.1641"/><text fill="#000000" font-family="sans-serif" font-size="14" lengthAdjust="spacing" textLength="167" x="304" y="406.1592">BaseEnvironmentScript</text><rect fill="#E2E2F0" height="30.2969" rx="2.5" ry="2.5" style="stroke:#181818;stroke-width:0.5;" width="114" x="488" y="5"/><text fill="#000000" font-family="sans-serif" font-size="14" lengthAdjust="spacing" textLength="100" x="495" y="24.9951">ParameterFile</text><rect fill="#E2E2F0" height="30.2969" rx="2.5" ry="2.5" style="stroke:#181818;stroke-width:0.5;" width="114" x="488" y="386.1641"/><text fill="#000000" font-family="sans-serif" font-size="14" lengthAdjust="spacing" textLength="100" x="495" y="406.1592">ParameterFile</text><rect fill="#E2E2F0" height="30.2969" rx="2.5" ry="2.5" style="stroke:#181818;stroke-width:0.5;" width="168" x="612" y="5"/><text fill="#000000" font-family="sans-serif" font-size="14" lengthAdjust="spacing" textLength="154" x="619" y="24.9951">JobEnvironmentScript</text><rect fill="#E2E2F0" height="30.2969" rx="2.5" ry="2.5" style="stroke:#181818;stroke-width:0.5;" width="168" x="612" y="386.1641"/><text fill="#000000" font-family="sans-serif" font-size="14" lengthAdjust="spacing" textLength="154" x="619" y="406.1592">JobEnvironmentScript</text><rect fill="#E2E2F0" height="30.2969" rx="2.5" ry="2.5" style="stroke:#181818;stroke-width:0.5;" width="120" x="790" y="5"/><text fill="#000000" font-family="sans-serif" font-size="14" lengthAdjust="spacing" textLength="106" x="797" y="24.9951">WrappedScript</text><rect fill="#E2E2F0" height="30.2969" rx="2.5" ry="2.5" style="stroke:#181818;stroke-width:0.5;" width="120" x="790" y="386.1641"/><text fill="#000000" font-family="sans-serif" font-size="14" lengthAdjust="spacing" textLength="106" x="797" y="406.1592">WrappedScript</text><rect fill="#FFFFFF" height="51.1328" style="stroke:#181818;stroke-width:1.0;" width="10" x="29.5" y="46.2969"/><rect fill="#FFFFFF" height="210.6641" style="stroke:#FFFFFF;stroke-width:1.0;" width="10" x="112" y="67.4297"/><line style="stroke:#181818;stroke-width:1.0;" x1="112" x2="112" y1="67.4297" y2="278.0938"/><line style="stroke:#181818;stroke-width:1.0;" x1="122" x2="122" y1="67.4297" y2="278.0938"/><line style="stroke:#181818;stroke-width:1.0;" x1="112" x2="122" y1="67.4297" y2="67.4297"/><rect fill="#FFFFFF" height="59.2656" style="stroke:#FFFFFF;stroke-width:1.0;" width="10" x="112" y="318.8984"/><line style="stroke:#181818;stroke-width:1.0;" x1="112" x2="112" y1="318.8984" y2="378.1641"/><line style="stroke:#181818;stroke-width:1.0;" x1="122" x2="122" y1="318.8984" y2="378.1641"/><rect fill="#FFFFFF" height="151.5313" style="stroke:#FFFFFF;stroke-width:1.0;" width="10" x="223.5" y="126.5625"/><line style="stroke:#181818;stroke-width:1.0;" x1="223.5" x2="223.5" y1="126.5625" y2="278.0938"/><line style="stroke:#181818;stroke-width:1.0;" x1="233.5" x2="233.5" y1="126.5625" y2="278.0938"/><line style="stroke:#181818;stroke-width:1.0;" x1="223.5" x2="233.5" y1="126.5625" y2="126.5625"/><rect fill="#FFFFFF" height="59.2656" style="stroke:#FFFFFF;stroke-width:1.0;" width="10" x="223.5" y="318.8984"/><line style="stroke:#181818;stroke-width:1.0;" x1="223.5" x2="223.5" y1="318.8984" y2="378.1641"/><line style="stroke:#181818;stroke-width:1.0;" x1="233.5" x2="233.5" y1="318.8984" y2="378.1641"/><rect fill="#FFFFFF" height="114.3984" style="stroke:#FFFFFF;stroke-width:1.0;" width="10" x="228.5" y="163.6953"/><line style="stroke:#181818;stroke-width:1.0;" x1="228.5" x2="228.5" y1="163.6953" y2="278.0938"/><line style="stroke:#181818;stroke-width:1.0;" x1="238.5" x2="238.5" y1="163.6953" y2="278.0938"/><line style="stroke:#181818;stroke-width:1.0;" x1="228.5" x2="238.5" y1="163.6953" y2="163.6953"/><rect fill="#FFFFFF" height="59.2656" style="stroke:#FFFFFF;stroke-width:1.0;" width="10" x="228.5" y="318.8984"/><line style="stroke:#181818;stroke-width:1.0;" x1="228.5" x2="228.5" y1="318.8984" y2="378.1641"/><line style="stroke:#181818;stroke-width:1.0;" x1="238.5" x2="238.5" y1="318.8984" y2="378.1641"/><rect fill="#FFFFFF" height="8" style="stroke:#FFFFFF;stroke-width:1.0;" width="10" x="845" y="270.0938"/><line style="stroke:#181818;stroke-width:1.0;" x1="845" x2="845" y1="270.0938" y2="278.0938"/><line style="stroke:#181818;stroke-width:1.0;" x1="855" x2="855" y1="270.0938" y2="278.0938"/><line style="stroke:#181818;stroke-width:1.0;" x1="845" x2="855" y1="270.0938" y2="270.0938"/><rect fill="#FFFFFF" height="21.1328" style="stroke:#FFFFFF;stroke-width:1.0;" width="10" x="845" y="318.8984"/><line style="stroke:#181818;stroke-width:1.0;" x1="845" x2="845" y1="318.8984" y2="340.0313"/><line style="stroke:#181818;stroke-width:1.0;" x1="855" x2="855" y1="318.8984" y2="340.0313"/><line style="stroke:#181818;stroke-width:1.0;" x1="845" x2="855" y1="340.0313" y2="340.0313"/><polygon fill="#181818" points="100,63.4297,110,67.4297,100,71.4297,104,67.4297" style="stroke:#181818;stroke-width:1.0;"/><line style="stroke:#181818;stroke-width:1.0;" x1="39.5" x2="106" y1="67.4297" y2="67.4297"/><text fill="#000000" font-family="sans-serif" font-size="13" lengthAdjust="spacing" textLength="45" x="46.5" y="62.3638">submit</text><polygon fill="#181818" points="211.5,122.5625,221.5,126.5625,211.5,130.5625,215.5,126.5625" style="stroke:#181818;stroke-width:1.0;"/><line style="stroke:#181818;stroke-width:1.0;" x1="122" x2="217.5" y1="126.5625" y2="126.5625"/><text fill="#000000" font-family="sans-serif" font-size="13" lengthAdjust="spacing" textLength="52" x="129" y="121.4966">execute</text><line style="stroke:#181818;stroke-width:1.0;" x1="233.5" x2="280.5" y1="150.6953" y2="150.6953"/><line style="stroke:#181818;stroke-width:1.0;" x1="280.5" x2="280.5" y1="150.6953" y2="163.6953"/><line style="stroke:#181818;stroke-width:1.0;" x1="239.5" x2="280.5" y1="163.6953" y2="163.6953"/><polygon fill="#181818" points="249.5,159.6953,239.5,163.6953,249.5,167.6953,245.5,163.6953" style="stroke:#181818;stroke-width:1.0;"/><text fill="#000000" font-family="sans-serif" font-size="13" lengthAdjust="spacing" textLength="112" x="245.5" y="145.6294">if `sg` necessary</text><polygon fill="#181818" points="375.5,193.8281,385.5,197.8281,375.5,201.8281,379.5,197.8281" style="stroke:#181818;stroke-width:1.0;"/><line style="stroke:#181818;stroke-width:1.0;" x1="238.5" x2="381.5" y1="197.8281" y2="197.8281"/><text fill="#000000" font-family="sans-serif" font-size="13" lengthAdjust="spacing" textLength="43" x="245.5" y="192.7622">source</text><polygon fill="#181818" points="533,222.9609,543,226.9609,533,230.9609,537,226.9609" style="stroke:#181818;stroke-width:1.0;"/><line style="stroke:#181818;stroke-width:1.0;" x1="238.5" x2="539" y1="226.9609" y2="226.9609"/><text fill="#000000" font-family="sans-serif" font-size="13" lengthAdjust="spacing" textLength="43" x="245.5" y="221.895">source</text><polygon fill="#181818" points="684,252.0938,694,256.0938,684,260.0938,688,256.0938" style="stroke:#181818;stroke-width:1.0;"/><line style="stroke:#181818;stroke-width:1.0;" x1="238.5" x2="690" y1="256.0938" y2="256.0938"/><text fill="#000000" font-family="sans-serif" font-size="13" lengthAdjust="spacing" textLength="43" x="245.5" y="251.0278">source</text><polygon fill="#181818" points="833,266.0938,843,270.0938,833,274.0938,837,270.0938" style="stroke:#181818;stroke-width:1.0;"/><line style="stroke:#181818;stroke-width:1.0;" x1="238.5" x2="839" y1="270.0938" y2="270.0938"/><text fill="#000000" font-family="sans-serif" font-size="11" lengthAdjust="spacing" textLength="162" x="361.25" y="302.3042">usually long processing time</text><polygon fill="#181818" points="249.5,336.0313,239.5,340.0313,249.5,344.0313,245.5,340.0313" style="stroke:#181818;stroke-width:1.0;"/><line style="stroke:#181818;stroke-width:1.0;" x1="243.5" x2="849" y1="340.0313" y2="340.0313"/><text fill="#000000" font-family="sans-serif" font-size="13" lengthAdjust="spacing" textLength="74" x="255.5" y="334.9653">return code</text><polygon fill="#181818" points="133,365.1641,123,369.1641,133,373.1641,129,369.1641" style="stroke:#181818;stroke-width:1.0;"/><line style="stroke:#181818;stroke-width:1.0;" x1="127" x2="227.5" y1="369.1641" y2="369.1641"/><text fill="#000000" font-family="sans-serif" font-size="13" lengthAdjust="spacing" textLength="74" x="139" y="364.0981">return code</text><!--SRC=[bP8z3i8m38NtdC8Ne0TWO031m8HWOAr938gK9fNZ87fxma-XBJ-2AP7p_Fcz9AZ57b48ri6OHgdh0gC9p5oAGhmCEnX3JBlAYi9M_3nKXd20w7HcpfQnheatccqj6KKdqadeoUe9bEhhtm3i7ifuAC6JfXYHczzHKumqzqVBmLVavO6C8R6cDmqhPAmeXrbOHz-4EUnVu5l1t9qE0hHbLHG5f9ZGkGPSy0UeELn2sxmLMn5aGGitds-CIH9xqC5aAvtt6anxCTdx0bt86G00]--></g></svg>