<?xml version="1.0" encoding="us-ascii" standalone="no"?><svg xmlns="http://www.w3.org/2000/svg" xmlns:xlink="http://www.w3.org/1999/xlink" contentStyleType="text/css" height="1158px" preserveAspectRatio="none" style="width:759px;height:1158px;background:#FFFFFF;" version="1.1" viewBox="0 0 759 1158" width="759px" zoomAndPan="magnify"><defs/><g><g id="Setup"><rect fill="#F1F1F1" height="50" rx="12.5" ry="12.5" style="stroke:#181818;stroke-width:0.5;" width="61" x="561" y="87"/><line style="stroke:#181818;stroke-width:0.5;" x1="561" x2="622" y1="113.2969" y2="113.2969"/><text fill="#000000" font-family="sans-serif" font-size="14" lengthAdjust="spacing" textLength="41" x="571" y="104.9951">Setup</text></g><g id="baseEnvironmentScript"><rect fill="#F1F1F1" height="50" rx="12.5" ry="12.5" style="stroke:#181818;stroke-width:0.5;" width="254" x="98.5" y="198"/><line style="stroke:#181818;stroke-width:0.5;" x1="98.5" x2="352.5" y1="224.2969" y2="224.2969"/><text fill="#000000" font-family="sans-serif" font-size="14" lengthAdjust="spacing" textLength="234" x="108.5" y="215.9951">Source `baseEnvironmentScript`</text></g><g id="elem_GMN4"><path d="M20,92 L20,132.2656 A0,0 0 0 0 20,132.2656 L221.5,132.2656 L225.5,197.61 L229.5,132.2656 L431,132.2656 A0,0 0 0 0 431,132.2656 L431,102 L421,92 L20,92 A0,0 0 0 0 20,92 " fill="#FEFFDD" style="stroke:#181818;stroke-width:0.5;"/><path d="M421,92 L421,102 L431,102 L421,92 " fill="#FEFFDD" style="stroke:#181818;stroke-width:0.5;"/><text fill="#000000" font-family="sans-serif" font-size="13" lengthAdjust="spacing" textLength="390" x="26" y="109.0669">This script is sourced at the beginning of the wrapper script.</text><text fill="#000000" font-family="sans-serif" font-size="13" lengthAdjust="spacing" textLength="176" x="26" y="124.1997">to e.g. source `/etc/profile`</text></g><g id="parameterFile"><rect fill="#F1F1F1" height="50" rx="12.5" ry="12.5" style="stroke:#181818;stroke-width:0.5;" width="211" x="48" y="309"/><line style="stroke:#181818;stroke-width:0.5;" x1="48" x2="259" y1="335.2969" y2="335.2969"/><text fill="#000000" font-family="sans-serif" font-size="14" lengthAdjust="spacing" textLength="191" x="58" y="326.9951">Source `PARAMETER_FILE`</text></g><g id="changeGroup"><rect fill="#F1F1F1" height="50" rx="12.5" ry="12.5" style="stroke:#181818;stroke-width:0.5;" width="121" x="555" y="309"/><line style="stroke:#181818;stroke-width:0.5;" x1="555" x2="676" y1="335.2969" y2="335.2969"/><text fill="#000000" font-family="sans-serif" font-size="14" lengthAdjust="spacing" textLength="101" x="565" y="326.9951">Change group</text></g><g id="jobSpecificEnvironmentScript"><rect fill="#F1F1F1" height="50" rx="12.5" ry="12.5" style="stroke:#181818;stroke-width:0.5;" width="293" x="7" y="436"/><line style="stroke:#181818;stroke-width:0.5;" x1="7" x2="300" y1="462.2969" y2="462.2969"/><text fill="#000000" font-family="sans-serif" font-size="14" lengthAdjust="spacing" textLength="273" x="17" y="453.9951">Source job-specific environment script</text></g><g id="setupScratchDirectory"><rect fill="#F1F1F1" height="50" rx="12.5" ry="12.5" style="stroke:#181818;stroke-width:0.5;" width="185" x="61" y="547"/><line style="stroke:#181818;stroke-width:0.5;" x1="61" x2="246" y1="573.2969" y2="573.2969"/><text fill="#000000" font-family="sans-serif" font-size="14" lengthAdjust="spacing" textLength="165" x="71" y="564.9951">Setup scratch directory</text></g><g id="updateJobStateLogfile"><rect fill="#F1F1F1" height="50" rx="12.5" ry="12.5" style="stroke:#181818;stroke-width:0.5;" width="218" x="44.5" y="658"/><line style="stroke:#181818;stroke-width:0.5;" x1="44.5" x2="262.5" y1="684.2969" y2="684.2969"/><text fill="#000000" font-family="sans-serif" font-size="14" lengthAdjust="spacing" textLength="198" x="54.5" y="675.9951">Update `jobStateLogfile.txt`</text></g><g id="runWrappedScript"><rect fill="#F1F1F1" height="50" rx="12.5" ry="12.5" style="stroke:#181818;stroke-width:0.5;" width="157" x="75" y="769"/><line style="stroke:#181818;stroke-width:0.5;" x1="75" x2="232" y1="795.2969" y2="795.2969"/><text fill="#000000" font-family="sans-serif" font-size="14" lengthAdjust="spacing" textLength="137" x="85" y="786.9951">Run wrapped script</text></g><g id="killChildProcess"><rect fill="#F1F1F1" height="50" rx="12.5" ry="12.5" style="stroke:#181818;stroke-width:0.5;" width="139" x="84" y="880"/><line style="stroke:#181818;stroke-width:0.5;" x1="84" x2="223" y1="906.2969" y2="906.2969"/><text fill="#000000" font-family="sans-serif" font-size="14" lengthAdjust="spacing" textLength="119" x="94" y="897.9951">Kill child-process</text></g><g id="updateJobStateLogfile2"><rect fill="#F1F1F1" height="50" rx="12.5" ry="12.5" style="stroke:#181818;stroke-width:0.5;" width="218" x="44.5" y="991"/><line style="stroke:#181818;stroke-width:0.5;" x1="44.5" x2="262.5" y1="1017.2969" y2="1017.2969"/><text fill="#000000" font-family="sans-serif" font-size="14" lengthAdjust="spacing" textLength="198" x="54.5" y="1008.9951">Update `jobStateLogfile.txt`</text></g><g id="exit"><rect fill="#F1F1F1" height="50" rx="12.5" ry="12.5" style="stroke:#181818;stroke-width:0.5;" width="50" x="128.5" y="1102"/><line style="stroke:#181818;stroke-width:0.5;" x1="128.5" x2="178.5" y1="1128.2969" y2="1128.2969"/><text fill="#000000" font-family="sans-serif" font-size="14" lengthAdjust="spacing" textLength="26" x="140.5" y="1119.9951">Exit</text></g><ellipse cx="591.5" cy="16" fill="#222222" rx="10" ry="10" style="stroke:#222222;stroke-width:1.0;"/><!--link *start* to Setup--><g id="link_*start*_Setup"><path d="M591.5,26.01 C591.5,39.89 591.5,60.97 591.5,80.84 " fill="none" id="*start*-to-Setup" style="stroke:#181818;stroke-width:1.0;"/><polygon fill="#181818" points="591.5,86.84,595.5,77.84,591.5,81.84,587.5,77.84,591.5,86.84" style="stroke:#181818;stroke-width:1.0;"/></g><!--link Setup to baseEnvironmentScript--><g id="link_Setup_baseEnvironmentScript"><path d="M560.92,122.11 C505.43,138.63 392.2103,172.3472 311.9403,196.2572 " fill="none" id="Setup-to-baseEnvironmentScript" style="stroke:#181818;stroke-width:1.0;"/><polygon fill="#181818" points="306.19,197.97,315.9574,199.2343,310.9819,196.5426,313.6736,191.5672,306.19,197.97" style="stroke:#181818;stroke-width:1.0;"/></g><!--link baseEnvironmentScript to parameterFile--><g id="link_baseEnvironmentScript_parameterFile"><path d="M209.52,248.19 C197.59,266.25 184.6683,285.8245 172.7383,303.8745 " fill="none" id="baseEnvironmentScript-to-parameterFile" style="stroke:#181818;stroke-width:1.0;"/><polygon fill="#181818" points="169.43,308.88,177.7295,303.5773,172.1869,304.7088,171.0555,299.1662,169.43,308.88" style="stroke:#181818;stroke-width:1.0;"/></g><!--link parameterFile to changeGroup--><g id="link_parameterFile_changeGroup"><path d="M259.2,334 C350.7,334 473.8,334 548.86,334 " fill="none" id="parameterFile-to-changeGroup" style="stroke:#181818;stroke-width:1.0;"/><polygon fill="#181818" points="554.86,334,545.86,330,549.86,334,545.86,338,554.86,334" style="stroke:#181818;stroke-width:1.0;"/><text fill="#000000" font-family="sans-serif" font-size="13" lengthAdjust="spacing" textLength="205" x="302.5" y="297.0669">if "$outputFileGroup" != "false"</text><text fill="#000000" font-family="sans-serif" font-size="13" lengthAdjust="spacing" textLength="172" x="319" y="312.1997">&amp;&amp; $outputFileGroup != ""</text><text fill="#000000" font-family="sans-serif" font-size="13" lengthAdjust="spacing" textLength="259" x="277.5" y="327.3325">&amp;&amp; "${sgWasCalled:-false}" == "false"</text></g><!--reverse link Setup to changeGroup--><g id="link_Setup_changeGroup"><path d="M594.8113,143.3445 C599.4413,185.7445 608.26,266.6 612.86,308.84 " fill="none" id="Setup-backto-changeGroup" style="stroke:#181818;stroke-width:1.0;"/><polygon fill="#181818" points="594.16,137.38,591.1606,146.761,594.7028,142.3505,599.1133,145.8926,594.16,137.38" style="stroke:#181818;stroke-width:1.0;"/><text fill="#000000" font-family="sans-serif" font-size="13" lengthAdjust="spacing" textLength="145" x="606.5" y="227.5669">sgWasCalled := "true"</text></g><!--link parameterFile to jobSpecificEnvironmentScript--><g id="link_parameterFile_jobSpecificEnvironmentScript"><path d="M153.5,359.1 C153.5,381.24 153.5,407.86 153.5,429.97 " fill="none" id="parameterFile-to-jobSpecificEnvironmentScript" style="stroke:#181818;stroke-width:1.0;"/><polygon fill="#181818" points="153.5,435.97,157.5,426.97,153.5,430.97,149.5,426.97,153.5,435.97" style="stroke:#181818;stroke-width:1.0;"/><text fill="#000000" font-family="sans-serif" font-size="13" lengthAdjust="spacing" textLength="64" x="154.5" y="402.0669">otherwise</text></g><!--link jobSpecificEnvironmentScript to setupScratchDirectory--><g id="link_jobSpecificEnvironmentScript_setupScratchDirectory"><path d="M153.5,486.19 C153.5,504.25 153.5,522.83 153.5,540.88 " fill="none" id="jobSpecificEnvironmentScript-to-setupScratchDirectory" style="stroke:#181818;stroke-width:1.0;"/><polygon fill="#181818" points="153.5,546.88,157.5,537.88,153.5,541.88,149.5,537.88,153.5,546.88" style="stroke:#181818;stroke-width:1.0;"/></g><!--link setupScratchDirectory to updateJobStateLogfile--><g id="link_setupScratchDirectory_updateJobStateLogfile"><path d="M153.5,597.19 C153.5,615.25 153.5,633.83 153.5,651.88 " fill="none" id="setupScratchDirectory-to-updateJobStateLogfile" style="stroke:#181818;stroke-width:1.0;"/><polygon fill="#181818" points="153.5,657.88,157.5,648.88,153.5,652.88,149.5,648.88,153.5,657.88" style="stroke:#181818;stroke-width:1.0;"/></g><!--link updateJobStateLogfile to runWrappedScript--><g id="link_updateJobStateLogfile_runWrappedScript"><path d="M153.5,708.19 C153.5,726.25 153.5,744.83 153.5,762.88 " fill="none" id="updateJobStateLogfile-to-runWrappedScript" style="stroke:#181818;stroke-width:1.0;"/><polygon fill="#181818" points="153.5,768.88,157.5,759.88,153.5,763.88,149.5,759.88,153.5,768.88" style="stroke:#181818;stroke-width:1.0;"/></g><!--link runWrappedScript to killChildProcess--><g id="link_runWrappedScript_killChildProcess"><path d="M153.5,819.19 C153.5,837.25 153.5,855.83 153.5,873.88 " fill="none" id="runWrappedScript-to-killChildProcess" style="stroke:#181818;stroke-width:1.0;"/><polygon fill="#181818" points="153.5,879.88,157.5,870.88,153.5,874.88,149.5,870.88,153.5,879.88" style="stroke:#181818;stroke-width:1.0;"/></g><!--link killChildProcess to updateJobStateLogfile2--><g id="link_killChildProcess_updateJobStateLogfile2"><path d="M153.5,930.19 C153.5,948.25 153.5,966.83 153.5,984.88 " fill="none" id="killChildProcess-to-updateJobStateLogfile2" style="stroke:#181818;stroke-width:1.0;"/><polygon fill="#181818" points="153.5,990.88,157.5,981.88,153.5,985.88,149.5,981.88,153.5,990.88" style="stroke:#181818;stroke-width:1.0;"/></g><!--link updateJobStateLogfile2 to exit--><g id="link_updateJobStateLogfile2_exit"><path d="M153.5,1041.19 C153.5,1059.25 153.5,1077.83 153.5,1095.88 " fill="none" id="updateJobStateLogfile2-to-exit" style="stroke:#181818;stroke-width:1.0;"/><polygon fill="#181818" points="153.5,1101.88,157.5,1092.88,153.5,1096.88,149.5,1092.88,153.5,1101.88" style="stroke:#181818;stroke-width:1.0;"/></g><!--SRC=[fLFBRjim4BphAxP2a4C1EO2F1b8WS9MWJG84LeeSsgAYfPN4HY49Fk8KHV-z94MpjYpxqfF9sPdbx6giDD481MeZ4kNFQS6Dh13ADL6OirSgENj1fejAKg7B58Y2oLB2k9LhBe0tHnW0ZnrLeFmDtCc_LGFHe3k4DRQKCSfQry816qc4G1aKCzj0Sy1PEmjAA2zGLnT2yeRsM2R8Qd0sal4m3rUhg_lyCL_zkFvqbmzJ22B92sgKrrOR5SkEi1QXbTm8JwiySEFkuxO_-JfJ0YlQq0hmtxZ1hvTRJX4eXmk9_Tm7S2gYgmvgAh7INFxo3PIh5KFfuxOIbLz4xNvBzun3xdZhLZ7JR-5R6K_ul5-EyfLXOSdrhcbfsDE0ZepUqhwt6w5zdTcbLwYKvpzRUEdGXm7yJtlpgC_VwE08xI59ag_llqDMymtBFeJK3glROjEvcqIZPZy7UpV896qxRKaxAO05q0RICswqCDhHReQmlBk4j26zmXI-iVDp63Cy8TJIiz-gVI9gIVeUwqNcTNzIk8mzacJtpSo8xSZs_HqfBAn2I-C48-zXlbC9jBsu_QF93LKs52UPstR7yZW5Hz6H54x2KNIOmZ4IgOS172EdhSoFU9b7sH30lm00]--></g></svg>